<svg xmlns="http://www.w3.org/2000/svg" viewBox="0 0 1200 630" role="img">
  <defs>
    <linearGradient id="bg" x1="0" y1="0" x2="1" y2="1">
      <stop offset="0" stop-color="#0d0d0d"/>
      <stop offset="1" stop-color="#171512"/>
    </linearGradient>
    <linearGradient id="gold" x1="0" y1="0" x2="1" y2="0">
      <stop offset="0" stop-color="#f5b849"/>
      <stop offset="1" stop-color="#c98925"/>
    </linearGradient>
  </defs>
  <rect width="1200" height="630" fill="url(#bg)"/>
  <circle cx="150" cy="100" r="200" fill="#f5b849" opacity="0.05"/>
  <circle cx="1080" cy="540" r="200" fill="#c98925" opacity="0.06"/>
  <g transform="translate(330 130)">
    <rect x="0" y="120" width="380" height="250" rx="10" fill="none" stroke="#b7afa0" stroke-opacity="0.5" stroke-width="4"/>
    <path d="M-20 120 L 30 40 H 350 L 400 120 Z" fill="none" stroke="url(#gold)" stroke-width="5"/>
    <path d="M-20 120 h 420" stroke="#f5b849" stroke-width="5"/>
    <rect x="60" y="190" width="110" height="180" rx="6" fill="none" stroke="#b7afa0" stroke-opacity="0.5" stroke-width="4"/>
    <rect x="230" y="190" width="100" height="90" rx="6" fill="#f5b849" opacity="0.16"/>
    <rect x="230" y="190" width="100" height="90" rx="6" fill="none" stroke="#f5b849" stroke-opacity="0.6" stroke-width="3"/>
  </g>
  <g transform="translate(800 160)">
    <path d="M90 0 C 40 0 0 40 0 92 c 0 66 90 158 90 158 s 90 -92 90 -158 C 180 40 140 0 90 0 Z" fill="none" stroke="url(#gold)" stroke-width="6"/>
    <circle cx="90" cy="92" r="34" fill="#f5b849"/>
  </g>
  <g transform="translate(805 440)" fill="#f5b849">
    <path d="M20 0 l 6 13 14 2 -10 10 2 14 -12 -7 -12 7 2 -14 -10 -10 14 -2 Z"/>
    <path d="M75 0 l 6 13 14 2 -10 10 2 14 -12 -7 -12 7 2 -14 -10 -10 14 -2 Z"/>
    <path d="M130 0 l 6 13 14 2 -10 10 2 14 -12 -7 -12 7 2 -14 -10 -10 14 -2 Z" opacity="0.45"/>
  </g>
</svg>
