<svg xmlns="http://www.w3.org/2000/svg" viewBox="0 0 1200 630" role="img">
  <defs>
    <linearGradient id="bg" x1="0" y1="0" x2="1" y2="1">
      <stop offset="0" stop-color="#0d0d0d"/>
      <stop offset="1" stop-color="#171512"/>
    </linearGradient>
    <linearGradient id="gold" x1="0" y1="0" x2="1" y2="1">
      <stop offset="0" stop-color="#f5b849"/>
      <stop offset="1" stop-color="#c98925"/>
    </linearGradient>
  </defs>
  <rect width="1200" height="630" fill="url(#bg)"/>
  <circle cx="1080" cy="110" r="200" fill="#f5b849" opacity="0.05"/>
  <circle cx="120" cy="540" r="190" fill="#c98925" opacity="0.06"/>
  <g transform="translate(420 90)">
    <path d="M0 0 H 360 L 230 190 V 330 L 130 380 V 190 Z" fill="none" stroke="url(#gold)" stroke-width="7" stroke-linejoin="round"/>
    <path d="M30 30 H 330 L 214 200 V 316 L 146 350 V 200 Z" fill="#f5b849" opacity="0.07"/>
  </g>
  <g fill="#f5b849">
    <circle cx="480" cy="50" r="8" opacity="0.9"/>
    <circle cx="560" cy="36" r="10"/>
    <circle cx="650" cy="52" r="8" opacity="0.8"/>
    <circle cx="720" cy="38" r="7" opacity="0.7"/>
  </g>
  <g stroke="#b7afa0" stroke-opacity="0.5" stroke-width="4" fill="none" stroke-linecap="round">
    <path d="M320 250 q -40 20 -30 60"/>
    <path d="M880 250 q 40 20 30 60"/>
  </g>
  <g fill="none" stroke="#f5b849" stroke-width="6" stroke-linecap="round" stroke-linejoin="round">
    <path d="M262 330 l 16 16 30 -34"/>
    <path d="M892 330 l 16 16 30 -34"/>
  </g>
  <g transform="translate(540 500)">
    <rect x="0" y="0" width="120" height="64" rx="10" fill="#f5b849" opacity="0.5"/>
    <rect x="14" y="16" width="70" height="9" rx="4" fill="#0d0d0d" opacity="0.7"/>
    <rect x="14" y="36" width="92" height="8" rx="4" fill="#0d0d0d" opacity="0.5"/>
  </g>
</svg>
